<?xml version="1.0" encoding="utf-8"?>
<!-- Generator: Adobe Illustrator 27.9.0, SVG Export Plug-In . SVG Version: 6.00 Build 0)  -->
<svg version="1.1" id="Layer_1" xmlns="http://www.w3.org/2000/svg" xmlns:xlink="http://www.w3.org/1999/xlink" x="0px" y="0px"
	 viewBox="0 0 2000 1000" style="enable-background:new 0 0 2000 1000;" xml:space="preserve">
<style type="text/css">
	.st0{fill:#FFFFFF;}
</style>
<g>
	<path d="M1699.9,442c3.2,7.2,8,16.2,16.7,16.7v4.5h-55.4v-4.5c11.1-0.8,15.9-6.9,11.7-17l-13.5-33.4h-82.1l-8,19.3
		c-7.4,18.5,1.9,29.1,28.1,31v4.5h-62.5v-4.5c8.7-0.8,19.6-13,28.1-33.7l51.7-125.9l-2.6-6.6c-2.7-6.4-6.6-10.1-12.5-10.3v-4.5h33.1
		L1699.9,442z M1579.9,401.7h76.6l-38.4-94.1L1579.9,401.7z"/>
	<path d="M1397.3,369.1c0,53.3,29.4,88.5,73.7,88.5c37.1,0,64.9-27.3,68.1-69.2h5.6c-1.9,47.7-33.1,78.2-80.6,78.2
		c-56.7,0-94.9-38.7-94.9-96.5c0-57.5,39.8-95.9,98.8-95.9c15.9,0,33.4,4.2,41.3,4.2c4.8,0,8.2-1.9,8.7-5h3.4l20.7,64.1h-5
		c-14.8-35-41.1-56.7-67.8-56.7C1426.2,280.9,1397.3,316.1,1397.3,369.1z"/>
	<path d="M246.7,277.7H309v4.5c-8.7,0.8-21.5,13.2-33.4,31.5l-38.4,59.9v73.4c0,9.5,4,11.4,18.6,11.7v4.5h-62.3v-4.5
		c14.6-0.3,18.5-2.1,18.5-11.7v-66.2L158,297.3c-5.6-8.2-11.4-14.3-17.5-15.1v-4.5H198v4.5c-11.9,0.8-16.4,7.2-9.3,18.3l44.3,67.8
		l37.4-58c10.9-17,2.4-26.2-23.6-28.1V277.7z"/>
	<path d="M279.8,370.5c0-57,41.1-96.2,95.4-96.2c54.3,0,95.1,39.2,95.1,96.2c0,57-40.8,96.2-95.1,96.2
		C320.9,466.7,279.8,427.4,279.8,370.5z M442.3,370.5c0-52.2-26.5-89.6-67-89.6c-40.8,0-67.3,37.4-67.3,89.6
		c0,52.2,26.5,89.6,67.3,89.6C415.8,460,442.3,422.7,442.3,370.5z"/>
	<path d="M621.7,282.2c-10.9,1.6-15.9,11.1-15.9,32.9v88.8c0,43.2-23.3,62.8-60.9,62.8c-42.7,0-64.4-23.1-64.4-62.5V291.2
		c0-6.9-4-8.7-10.6-9v-4.5h46.4v4.5c-6.6,0.3-10.6,2.1-10.6,9v107.3c0,38.7,15.4,59.9,45.1,59.9c28.9,0,48.8-18,48.8-57v-85.6
		c0-23.3-10.6-32.3-37.1-33.7v-4.5h59.4V282.2z"/>
	<path d="M771.5,458.7v4.5h-53.3v-4.5c5.3-0.3,8.7-4.2,8.7-10.6c0-19.3-19.1-39.5-48.2-39.5h-14.8v41.1c0,6.9,4,8.7,10.6,9v4.5
		h-46.4v-4.5c6.6-0.3,10.6-2.1,10.6-9V291.2c0-6.9-4-8.7-10.6-9v-4.5h76.3c36.6,0,56.7,18,56.7,50.9c0,37.1-27.3,67.3-68.9,76.1
		c27.3,3.2,49.8,18.3,62.8,40.8C759.8,453.4,765.1,458.2,771.5,458.7z M663.9,401.7h12.5c31.5,0,57.5-27,57.5-67.6
		c0-31.8-15.4-50.9-41.9-50.9h-21.7c-4,0-6.4,2.4-6.4,6.4V401.7z"/>
	<path d="M1168,403.6l-27.3,59.6h-111.6v-4.5c6.6-0.3,10.6-2.1,10.6-9V291.2c0-6.9-4-8.7-10.6-9v-4.5h46.4v4.5
		c-6.6,0.3-10.6,2.1-10.6,9v160.1c0,4,2.4,6.4,6.4,6.4h3.4c37.6,0,69.2-20.1,87.7-54.1H1168z"/>
	<path d="M1168.5,370.5c0-57,41.1-96.2,95.4-96.2c54.3,0,95.1,39.2,95.1,96.2c0,57-40.8,96.2-95.1,96.2
		C1209.6,466.7,1168.5,427.4,1168.5,370.5z M1330.9,370.5c0-52.2-26.5-89.6-67-89.6c-40.8,0-67.3,37.4-67.3,89.6
		c0,52.2,26.5,89.6,67.3,89.6C1304.4,460,1330.9,422.7,1330.9,370.5z"/>
	<path d="M1859.5,403.6l-27.3,59.6h-111.6v-4.5c6.6-0.3,10.6-2.1,10.6-9V291.2c0-6.9-4-8.7-10.6-9v-4.5h46.4v4.5
		c-6.6,0.3-10.6,2.1-10.6,9v160.1c0,4,2.4,6.4,6.4,6.4h3.4c37.6,0,69.2-20.1,87.7-54.1H1859.5z"/>
	<path d="M176.3,635.4v38.7c0,9.5,4,11.4,18.5,11.7v4.5h-54.3v-4.5c6.6-0.3,10.6-2.1,10.6-9V518.2c0-6.9-4-8.7-10.6-9v-4.5h76.6
		c38.7,0,57.2,18,57.2,52.2c0,40-32.1,78.4-96.5,78.4H176.3z M176.3,629h3.4c39.7,0,67.3-27.3,67.3-68.4c0-31.8-14.8-50.3-41.3-50.3
		h-23.1c-4,0-6.4,2.4-6.4,6.4V629z"/>
	<path d="M429.7,509.2c-10.9,1.6-15.9,11.1-15.9,32.9v88.8c0,43.2-23.3,62.8-60.9,62.8c-42.7,0-64.4-23.1-64.4-62.5V518.2
		c0-6.9-4-8.7-10.6-9v-4.5h46.4v4.5c-6.6,0.3-10.6,2.1-10.6,9v107.3c0,38.7,15.4,59.9,45.1,59.9c28.9,0,48.8-18,48.8-57v-85.6
		c0-23.3-10.6-32.3-37.1-33.7v-4.5h59.4V509.2z"/>
	<path d="M512.1,588.2c40.3,1.9,67.6,23.6,67.6,54.1c0,30.2-24.1,48-64.7,48h-79v-4.5c6.6-0.3,10.6-2.1,10.6-9V518.2
		c0-6.9-4-8.7-10.6-9v-4.5H510c35.2,0,56.2,15.4,56.2,40c0,23.6-21.7,40.8-54.1,42.9V588.2z M471.8,585.5H492
		c29.2,0,48-15.6,48-37.9c0-22.8-15.4-37.4-40.5-37.4h-21.2c-4,0-6.4,2.4-6.4,6.4V585.5z M504.1,684.7c29.7,0,48.2-17.2,48.2-44.3
		c0-28.6-22.5-48.2-57.2-48.2h-23.3v86.1c0,4,2.4,6.4,6.4,6.4H504.1z"/>
	<path d="M651.7,499.7l2.9,4.2c-29.4,21.7-40.8,50.3-40.8,109.4s11.4,87.4,40.8,109.2l-2.9,4c-37.9-22-60.4-63.9-60.4-113.2
		S613.8,521.9,651.7,499.7z"/>
	<path d="M814.7,630.6l-27.3,59.6H675.9v-4.5c6.6-0.3,10.6-2.1,10.6-9V518.2c0-6.9-4-8.7-10.6-9v-4.5h46.4v4.5
		c-6.6,0.3-10.6,2.1-10.6,9v160.1c0,4,2.4,6.4,6.4,6.4h3.4c37.6,0,69.2-20.1,87.7-54.1H814.7z"/>
	<path d="M850.8,676.7c0,6.9,4,8.7,10.6,9v4.5H815v-4.5c6.6-0.3,10.6-2.1,10.6-9V518.2c0-6.9-4-8.7-10.6-9v-4.5h46.4v4.5
		c-6.6,0.3-10.6,2.1-10.6,9V676.7z"/>
	<path d="M900.3,596.1c0,53.3,29.4,88.5,73.7,88.5c37.1,0,64.9-27.3,68.1-69.2h5.6c-1.9,47.7-33.1,78.2-80.6,78.2
		c-56.7,0-94.9-38.7-94.9-96.5c0-57.5,39.8-95.9,98.8-95.9c15.9,0,33.4,4.2,41.3,4.2c4.8,0,8.2-1.9,8.7-5h3.4l20.7,64.1h-5
		c-14.8-35-41.1-56.7-67.8-56.7C929.2,507.9,900.3,543.1,900.3,596.1z"/>
	<path d="M1203.1,669c3.2,7.2,8,16.2,16.7,16.7v4.5h-55.4v-4.5c11.1-0.8,15.9-6.9,11.7-17l-13.5-33.4h-82.1l-8,19.3
		c-7.4,18.5,1.9,29.1,28.1,31v4.5H1038v-4.5c8.7-0.8,19.6-13,28.1-33.7l51.7-125.9l-2.6-6.6c-2.7-6.4-6.6-10.1-12.5-10.3v-4.5h33.1
		L1203.1,669z M1083,628.7h76.6l-38.4-94.1L1083,628.7z"/>
	<path d="M1335.1,510.3l15.1,47.7h-5c-12.7-29.2-34.7-47.7-56.7-47.7h-1.9c-4,0-6.4,2.4-6.4,6.4v157.4c0,9.5,4,11.4,18.5,11.7v4.5
		h-62v-4.5c14.6-0.3,18.5-2.1,18.5-11.7V516.6c0-4-2.4-6.4-6.6-6.4h-1.6c-22.3,0-44,18.5-56.7,47.7h-5l15.1-47.7v-5.6h134.6V510.3z"
		/>
	<path d="M1406.6,676.7c0,6.9,4,8.7,10.6,9v4.5h-46.4v-4.5c6.6-0.3,10.6-2.1,10.6-9V518.2c0-6.9-4-8.7-10.6-9v-4.5h46.4v4.5
		c-6.6,0.3-10.6,2.1-10.6,9V676.7z"/>
	<path d="M1426.7,597.5c0-57,41.1-96.2,95.4-96.2c54.3,0,95.1,39.2,95.1,96.2s-40.8,96.2-95.1,96.2
		C1467.8,693.7,1426.7,654.4,1426.7,597.5z M1589.2,597.5c0-52.2-26.5-89.6-67-89.6c-40.8,0-67.3,37.4-67.3,89.6
		s26.5,89.6,67.3,89.6C1562.7,687,1589.2,649.7,1589.2,597.5z"/>
	<path d="M1718.3,504.7h59.4v4.5c-10.9,1.6-15.9,11.1-15.9,32.9v148.1h-6.1l-115.8-163.8v125.6c0,23.3,10.6,32.3,37.1,33.7v4.5
		h-59.6v-4.5c10.9-1.6,15.9-11.1,15.9-32.9V525.9c0-10.6-4.5-15.9-14.8-16.4v-4.8h36.3l100.7,142.6V542.9
		c0-23.3-10.6-32.3-37.1-33.7V504.7z"/>
	<path d="M1798.7,726.5l-2.9-4c29.4-21.7,40.8-50.1,40.8-109.2s-11.4-87.7-40.8-109.4l2.9-4.2c38.2,22.3,60.4,64.4,60.4,113.7
		S1836.9,704.5,1798.7,726.5z"/>
</g>
<g>
	<path class="st0" d="M3768.9,442c3.2,7.2,8,16.2,16.7,16.7v4.5h-55.4v-4.5c11.1-0.8,15.9-6.9,11.7-17l-13.5-33.4h-82.1l-8,19.3
		c-7.4,18.5,1.9,29.1,28.1,31v4.5h-62.5v-4.5c8.7-0.8,19.6-13,28.1-33.7l51.7-125.9l-2.6-6.6c-2.7-6.4-6.6-10.1-12.5-10.3v-4.5h33.1
		L3768.9,442z M3648.9,401.7h76.6l-38.4-94.1L3648.9,401.7z"/>
	<path class="st0" d="M3466.3,369.1c0,53.3,29.4,88.5,73.7,88.5c37.1,0,64.9-27.3,68.1-69.2h5.6c-1.9,47.7-33.1,78.2-80.6,78.2
		c-56.7,0-94.9-38.7-94.9-96.5c0-57.5,39.8-95.9,98.8-95.9c15.9,0,33.4,4.2,41.3,4.2c4.8,0,8.2-1.9,8.7-5h3.4l20.7,64.1h-5
		c-14.8-35-41.1-56.7-67.8-56.7C3495.2,280.9,3466.3,316.1,3466.3,369.1z"/>
	<path class="st0" d="M2315.7,277.7h62.3v4.5c-8.7,0.8-21.5,13.2-33.4,31.5l-38.4,59.9v73.4c0,9.5,4,11.4,18.6,11.7v4.5h-62.3v-4.5
		c14.6-0.3,18.5-2.1,18.5-11.7v-66.2l-54.1-83.5c-5.6-8.2-11.4-14.3-17.5-15.1v-4.5h57.5v4.5c-11.9,0.8-16.4,7.2-9.3,18.3l44.3,67.8
		l37.4-58c10.9-17,2.4-26.2-23.6-28.1V277.7z"/>
	<path class="st0" d="M2348.8,370.5c0-57,41.1-96.2,95.4-96.2c54.3,0,95.1,39.2,95.1,96.2c0,57-40.8,96.2-95.1,96.2
		C2389.9,466.7,2348.8,427.4,2348.8,370.5z M2511.3,370.5c0-52.2-26.5-89.6-67-89.6c-40.8,0-67.3,37.4-67.3,89.6
		c0,52.2,26.5,89.6,67.3,89.6C2484.8,460,2511.3,422.7,2511.3,370.5z"/>
	<path class="st0" d="M2690.7,282.2c-10.9,1.6-15.9,11.1-15.9,32.9v88.8c0,43.2-23.3,62.8-60.9,62.8c-42.7,0-64.4-23.1-64.4-62.5
		V291.2c0-6.9-4-8.7-10.6-9v-4.5h46.4v4.5c-6.6,0.3-10.6,2.1-10.6,9v107.3c0,38.7,15.4,59.9,45.1,59.9c28.9,0,48.8-18,48.8-57v-85.6
		c0-23.3-10.6-32.3-37.1-33.7v-4.5h59.4V282.2z"/>
	<path class="st0" d="M2840.5,458.7v4.5h-53.3v-4.5c5.3-0.3,8.7-4.2,8.7-10.6c0-19.3-19.1-39.5-48.2-39.5h-14.8v41.1
		c0,6.9,4,8.7,10.6,9v4.5h-46.4v-4.5c6.6-0.3,10.6-2.1,10.6-9V291.2c0-6.9-4-8.7-10.6-9v-4.5h76.3c36.6,0,56.7,18,56.7,50.9
		c0,37.1-27.3,67.3-68.9,76.1c27.3,3.2,49.8,18.3,62.8,40.8C2828.8,453.4,2834.1,458.2,2840.5,458.7z M2732.9,401.7h12.5
		c31.5,0,57.5-27,57.5-67.6c0-31.8-15.4-50.9-41.9-50.9h-21.7c-4,0-6.4,2.4-6.4,6.4V401.7z"/>
	<path class="st0" d="M3237,403.6l-27.3,59.6h-111.6v-4.5c6.6-0.3,10.6-2.1,10.6-9V291.2c0-6.9-4-8.7-10.6-9v-4.5h46.4v4.5
		c-6.6,0.3-10.6,2.1-10.6,9v160.1c0,4,2.4,6.4,6.4,6.4h3.4c37.6,0,69.2-20.1,87.7-54.1H3237z"/>
	<path class="st0" d="M3237.5,370.5c0-57,41.1-96.2,95.4-96.2c54.3,0,95.1,39.2,95.1,96.2c0,57-40.8,96.2-95.1,96.2
		C3278.6,466.7,3237.5,427.4,3237.5,370.5z M3399.9,370.5c0-52.2-26.5-89.6-67-89.6c-40.8,0-67.3,37.4-67.3,89.6
		c0,52.2,26.5,89.6,67.3,89.6C3373.4,460,3399.9,422.7,3399.9,370.5z"/>
	<path class="st0" d="M3928.5,403.6l-27.3,59.6h-111.6v-4.5c6.6-0.3,10.6-2.1,10.6-9V291.2c0-6.9-4-8.7-10.6-9v-4.5h46.4v4.5
		c-6.6,0.3-10.6,2.1-10.6,9v160.1c0,4,2.4,6.4,6.4,6.4h3.4c37.6,0,69.2-20.1,87.7-54.1H3928.5z"/>
	<path class="st0" d="M2245.3,635.4v38.7c0,9.5,4,11.4,18.5,11.7v4.5h-54.3v-4.5c6.6-0.3,10.6-2.1,10.6-9V518.2c0-6.9-4-8.7-10.6-9
		v-4.5h76.6c38.7,0,57.2,18,57.2,52.2c0,40-32.1,78.4-96.5,78.4H2245.3z M2245.3,629h3.4c39.7,0,67.3-27.3,67.3-68.4
		c0-31.8-14.8-50.3-41.3-50.3h-23.1c-4,0-6.4,2.4-6.4,6.4V629z"/>
	<path class="st0" d="M2498.7,509.2c-10.9,1.6-15.9,11.1-15.9,32.9v88.8c0,43.2-23.3,62.8-60.9,62.8c-42.7,0-64.4-23.1-64.4-62.5
		V518.2c0-6.9-4-8.7-10.6-9v-4.5h46.4v4.5c-6.6,0.3-10.6,2.1-10.6,9v107.3c0,38.7,15.4,59.9,45.1,59.9c28.9,0,48.8-18,48.8-57v-85.6
		c0-23.3-10.6-32.3-37.1-33.7v-4.5h59.4V509.2z"/>
	<path class="st0" d="M2581.1,588.2c40.3,1.9,67.6,23.6,67.6,54.1c0,30.2-24.1,48-64.7,48h-79v-4.5c6.6-0.3,10.6-2.1,10.6-9V518.2
		c0-6.9-4-8.7-10.6-9v-4.5h73.9c35.2,0,56.2,15.4,56.2,40c0,23.6-21.7,40.8-54.1,42.9V588.2z M2540.8,585.5h20.1
		c29.2,0,48-15.6,48-37.9c0-22.8-15.4-37.4-40.5-37.4h-21.2c-4,0-6.4,2.4-6.4,6.4V585.5z M2573.1,684.7c29.7,0,48.2-17.2,48.2-44.3
		c0-28.6-22.5-48.2-57.2-48.2h-23.3v86.1c0,4,2.4,6.4,6.4,6.4H2573.1z"/>
	<path class="st0" d="M2720.7,499.7l2.9,4.2c-29.4,21.7-40.8,50.3-40.8,109.4s11.4,87.4,40.8,109.2l-2.9,4
		c-37.9-22-60.4-63.9-60.4-113.2S2682.8,521.9,2720.7,499.7z"/>
	<path class="st0" d="M2883.7,630.6l-27.3,59.6h-111.6v-4.5c6.6-0.3,10.6-2.1,10.6-9V518.2c0-6.9-4-8.7-10.6-9v-4.5h46.4v4.5
		c-6.6,0.3-10.6,2.1-10.6,9v160.1c0,4,2.4,6.4,6.4,6.4h3.4c37.6,0,69.2-20.1,87.7-54.1H2883.7z"/>
	<path class="st0" d="M2919.8,676.7c0,6.9,4,8.7,10.6,9v4.5H2884v-4.5c6.6-0.3,10.6-2.1,10.6-9V518.2c0-6.9-4-8.7-10.6-9v-4.5h46.4
		v4.5c-6.6,0.3-10.6,2.1-10.6,9V676.7z"/>
	<path class="st0" d="M2969.3,596.1c0,53.3,29.4,88.5,73.7,88.5c37.1,0,64.9-27.3,68.1-69.2h5.6c-1.9,47.7-33.1,78.2-80.6,78.2
		c-56.7,0-94.9-38.7-94.9-96.5c0-57.5,39.8-95.9,98.8-95.9c15.9,0,33.4,4.2,41.3,4.2c4.8,0,8.2-1.9,8.7-5h3.4l20.7,64.1h-5
		c-14.8-35-41.1-56.7-67.8-56.7C2998.2,507.9,2969.3,543.1,2969.3,596.1z"/>
	<path class="st0" d="M3272.1,669c3.2,7.2,8,16.2,16.7,16.7v4.5h-55.4v-4.5c11.1-0.8,15.9-6.9,11.7-17l-13.5-33.4h-82.1l-8,19.3
		c-7.4,18.5,1.9,29.1,28.1,31v4.5H3107v-4.5c8.7-0.8,19.6-13,28.1-33.7l51.7-125.9l-2.6-6.6c-2.7-6.4-6.6-10.1-12.5-10.3v-4.5h33.1
		L3272.1,669z M3152,628.7h76.6l-38.4-94.1L3152,628.7z"/>
	<path class="st0" d="M3404.1,510.3l15.1,47.7h-5c-12.7-29.2-34.7-47.7-56.7-47.7h-1.9c-4,0-6.4,2.4-6.4,6.4v157.4
		c0,9.5,4,11.4,18.5,11.7v4.5h-62v-4.5c14.6-0.3,18.5-2.1,18.5-11.7V516.6c0-4-2.4-6.4-6.6-6.4h-1.6c-22.3,0-44,18.5-56.7,47.7h-5
		l15.1-47.7v-5.6h134.6V510.3z"/>
	<path class="st0" d="M3475.6,676.7c0,6.9,4,8.7,10.6,9v4.5h-46.4v-4.5c6.6-0.3,10.6-2.1,10.6-9V518.2c0-6.9-4-8.7-10.6-9v-4.5h46.4
		v4.5c-6.6,0.3-10.6,2.1-10.6,9V676.7z"/>
	<path class="st0" d="M3495.7,597.5c0-57,41.1-96.2,95.4-96.2c54.3,0,95.1,39.2,95.1,96.2s-40.8,96.2-95.1,96.2
		C3536.8,693.7,3495.7,654.4,3495.7,597.5z M3658.2,597.5c0-52.2-26.5-89.6-67-89.6c-40.8,0-67.3,37.4-67.3,89.6
		s26.5,89.6,67.3,89.6C3631.7,687,3658.2,649.7,3658.2,597.5z"/>
	<path class="st0" d="M3787.3,504.7h59.4v4.5c-10.9,1.6-15.9,11.1-15.9,32.9v148.1h-6.1l-115.8-163.8v125.6
		c0,23.3,10.6,32.3,37.1,33.7v4.5h-59.6v-4.5c10.9-1.6,15.9-11.1,15.9-32.9V525.9c0-10.6-4.5-15.9-14.8-16.4v-4.8h36.3l100.7,142.6
		V542.9c0-23.3-10.6-32.3-37.1-33.7V504.7z"/>
	<path class="st0" d="M3867.7,726.5l-2.9-4c29.4-21.7,40.8-50.1,40.8-109.2s-11.4-87.7-40.8-109.4l2.9-4.2
		c38.2,22.3,60.4,64.4,60.4,113.7S3905.9,704.5,3867.7,726.5z"/>
</g>
</svg>
