<?xml version="1.0" encoding="UTF-8"?>
<svg id="Layer_1" data-name="Layer 1" xmlns="http://www.w3.org/2000/svg" viewBox="0 0 2000 1000">
  <defs>
    <style>
      .cls-1 {
        stroke-width: 0px;
      }
    </style>
  </defs>
  <path class="cls-1" d="m842.98,531.29c1.78,4.01,4.46,9.06,9.36,9.36v2.53h-31.05v-2.53c6.24-.45,8.91-3.86,6.54-9.51l-7.58-18.72h-46.05l-4.46,10.85c-4.16,10.4,1.04,16.34,15.75,17.38v2.53h-35.06v-2.53c4.9-.45,10.99-7.28,15.75-18.87l28.97-70.57-1.49-3.71c-1.49-3.57-3.71-5.65-6.98-5.79v-2.53h18.57l37.73,92.11Zm-67.3-22.58h42.93l-21.54-52.74-21.39,52.74Z"/>
  <path class="cls-1" d="m673.32,490.44c0,29.86,16.49,49.62,41.3,49.62,20.8,0,36.4-15.3,38.18-38.77h3.12c-1.04,26.74-18.57,43.83-45.16,43.83-31.79,0-53.19-21.69-53.19-54.08s22.28-53.78,55.41-53.78c8.91,0,18.72,2.38,23.18,2.38,2.67,0,4.61-1.04,4.9-2.82h1.93l11.59,35.95h-2.82c-8.32-19.61-23.03-31.79-38.03-31.79-24.22,0-40.41,19.76-40.41,49.47Z"/>
  <path class="cls-1" d="m112.44,439.18h34.91v2.53c-4.9.45-12.03,7.43-18.72,17.68l-21.54,33.58v41.15c0,5.35,2.23,6.39,10.4,6.54v2.53h-34.91v-2.53c8.17-.15,10.4-1.19,10.4-6.54v-37.14l-30.31-46.8c-3.12-4.61-6.39-8.02-9.81-8.47v-2.53h32.24v2.53c-6.69.45-9.21,4.01-5.2,10.25l24.81,38.03,20.95-32.54c6.09-9.51,1.34-14.71-13.22-15.75v-2.53Z"/>
  <path class="cls-1" d="m131.01,491.18c0-31.94,23.03-53.93,53.48-53.93s53.33,21.99,53.33,53.93-22.88,53.93-53.33,53.93-53.48-21.99-53.48-53.93Zm91.07,0c0-29.27-14.86-50.21-37.59-50.21s-37.73,20.95-37.73,50.21,14.86,50.21,37.73,50.21,37.59-20.95,37.59-50.21Z"/>
  <path class="cls-1" d="m322.65,441.71c-6.09.89-8.91,6.24-8.91,18.42v49.77c0,24.22-13.07,35.21-34.17,35.21-23.92,0-36.1-12.92-36.1-35.06v-63.29c0-3.86-2.23-4.9-5.94-5.05v-2.53h26v2.53c-3.71.15-5.94,1.19-5.94,5.05v60.17c0,21.69,8.62,33.58,25.26,33.58s27.34-10.1,27.34-31.94v-47.99c0-13.07-5.94-18.12-20.8-18.87v-2.53h33.28v2.53Z"/>
  <path class="cls-1" d="m406.62,540.65v2.53h-29.86v-2.53c2.97-.15,4.9-2.38,4.9-5.94,0-10.84-10.7-22.14-27.04-22.14h-8.32v23.03c0,3.86,2.23,4.9,5.94,5.05v2.53h-26v-2.53c3.71-.15,5.94-1.19,5.94-5.05v-88.84c0-3.86-2.23-4.9-5.94-5.05v-2.53h42.79c20.5,0,31.79,10.1,31.79,28.52,0,20.8-15.3,37.73-38.63,42.64,15.3,1.78,27.93,10.25,35.21,22.88,2.67,4.46,5.65,7.13,9.21,7.43Zm-60.32-31.94h6.98c17.68,0,32.24-15.15,32.24-37.88,0-17.83-8.62-28.52-23.47-28.52h-12.18c-2.23,0-3.57,1.34-3.57,3.57v62.84Z"/>
  <path class="cls-1" d="m544.78,509.75l-15.3,33.43h-62.54v-2.53c3.71-.15,5.94-1.19,5.94-5.05v-88.84c0-3.86-2.23-4.9-5.94-5.05v-2.53h26v2.53c-3.71.15-5.94,1.19-5.94,5.05v89.73c0,2.23,1.34,3.57,3.57,3.57h1.93c21.1,0,38.78-11.29,49.17-30.31h3.12Z"/>
  <path class="cls-1" d="m545.04,491.18c0-31.94,23.03-53.93,53.48-53.93s53.33,21.99,53.33,53.93-22.88,53.93-53.33,53.93-53.48-21.99-53.48-53.93Zm91.07,0c0-29.27-14.86-50.21-37.59-50.21s-37.73,20.95-37.73,50.21,14.86,50.21,37.73,50.21,37.59-20.95,37.59-50.21Z"/>
  <path class="cls-1" d="m932.45,509.75l-15.3,33.43h-62.54v-2.53c3.71-.15,5.94-1.19,5.94-5.05v-88.84c0-3.86-2.23-4.9-5.94-5.05v-2.53h26v2.53c-3.71.15-5.94,1.19-5.94,5.05v89.73c0,2.23,1.34,3.57,3.57,3.57h1.93c21.1,0,38.78-11.29,49.17-30.31h3.12Z"/>
  <path class="cls-1" d="m1003.73,512.48v21.69c0,5.35,2.23,6.39,10.4,6.54v2.53h-30.46v-2.53c3.71-.15,5.94-1.19,5.94-5.05v-88.84c0-3.86-2.23-4.9-5.94-5.05v-2.52h42.93c21.69,0,32.09,10.1,32.09,29.27,0,22.43-17.98,43.98-54.08,43.98h-.89Zm0-3.57h1.93c22.28,0,37.73-15.3,37.73-38.33,0-17.83-8.32-28.23-23.18-28.23h-12.92c-2.23,0-3.57,1.34-3.57,3.57v62.99Z"/>
  <path class="cls-1" d="m1145.76,441.76c-6.09.89-8.91,6.24-8.91,18.42v49.77c0,24.22-13.07,35.21-34.17,35.21-23.92,0-36.1-12.93-36.1-35.06v-63.29c0-3.86-2.23-4.9-5.94-5.05v-2.52h26v2.52c-3.71.15-5.94,1.19-5.94,5.05v60.17c0,21.69,8.62,33.58,25.26,33.58s27.34-10.1,27.34-31.94v-47.99c0-13.07-5.94-18.12-20.8-18.87v-2.52h33.28v2.52Z"/>
  <path class="cls-1" d="m1191.96,486.04c22.58,1.04,37.88,13.22,37.88,30.31s-13.52,26.89-36.25,26.89h-44.27v-2.53c3.71-.15,5.94-1.19,5.94-5.05v-88.84c0-3.86-2.23-4.9-5.94-5.05v-2.52h41.45c19.76,0,31.5,8.62,31.5,22.43s-12.18,22.88-30.31,24.07v.3Zm-22.58-1.49h11.29c16.34,0,26.89-8.77,26.89-21.24s-8.62-20.95-22.73-20.95h-11.88c-2.23,0-3.57,1.34-3.57,3.57v38.63Zm18.12,55.56c16.64,0,27.04-9.66,27.04-24.81,0-16.04-12.63-27.04-32.09-27.04h-13.07v48.28c0,2.23,1.34,3.57,3.57,3.57h14.56Z"/>
  <path class="cls-1" d="m1270.24,436.42l1.63,2.38c-16.49,12.18-22.88,28.23-22.88,61.36s6.39,49.03,22.88,61.21l-1.63,2.23c-21.24-12.33-33.87-35.8-33.87-63.44s12.63-51.25,33.87-63.73Z"/>
  <path class="cls-1" d="m1361.61,509.81l-15.3,33.43h-62.54v-2.53c3.71-.15,5.94-1.19,5.94-5.05v-88.84c0-3.86-2.23-4.9-5.94-5.05v-2.52h26v2.52c-3.71.15-5.94,1.19-5.94,5.05v89.73c0,2.23,1.34,3.57,3.57,3.57h1.93c21.1,0,38.78-11.29,49.17-30.31h3.12Z"/>
  <path class="cls-1" d="m1381.85,535.66c0,3.86,2.23,4.9,5.94,5.05v2.53h-26v-2.53c3.71-.15,5.94-1.19,5.94-5.05v-88.84c0-3.86-2.23-4.9-5.94-5.05v-2.52h26v2.52c-3.71.15-5.94,1.19-5.94,5.05v88.84Z"/>
  <path class="cls-1" d="m1409.6,490.49c0,29.86,16.49,49.62,41.3,49.62,20.8,0,36.4-15.3,38.18-38.77h3.12c-1.04,26.74-18.57,43.83-45.16,43.83-31.79,0-53.19-21.69-53.19-54.08s22.28-53.78,55.41-53.78c8.91,0,18.72,2.38,23.18,2.38,2.67,0,4.61-1.04,4.9-2.82h1.93l11.59,35.95h-2.82c-8.32-19.61-23.03-31.79-38.03-31.79-24.22,0-40.41,19.76-40.41,49.47Z"/>
  <path class="cls-1" d="m1579.34,531.35c1.78,4.01,4.46,9.06,9.36,9.36v2.53h-31.05v-2.53c6.24-.45,8.91-3.86,6.54-9.51l-7.58-18.72h-46.05l-4.46,10.84c-4.16,10.4,1.04,16.34,15.75,17.38v2.53h-35.06v-2.53c4.9-.45,10.99-7.28,15.75-18.87l28.97-70.57-1.49-3.71c-1.49-3.57-3.71-5.65-6.98-5.79v-2.52h18.57l37.73,92.11Zm-67.3-22.58h42.93l-21.54-52.74-21.39,52.74Z"/>
  <path class="cls-1" d="m1653.34,442.36l8.47,26.74h-2.82c-7.13-16.34-19.46-26.74-31.79-26.74h-1.04c-2.23,0-3.57,1.34-3.57,3.57v88.25c0,5.35,2.23,6.39,10.4,6.54v2.53h-34.76v-2.53c8.17-.15,10.4-1.19,10.4-6.54v-88.25c0-2.23-1.34-3.57-3.71-3.57h-.89c-12.48,0-24.66,10.4-31.79,26.74h-2.82l8.47-26.74v-3.12h75.47v3.12Z"/>
  <path class="cls-1" d="m1693.44,535.66c0,3.86,2.23,4.9,5.94,5.05v2.53h-26v-2.53c3.71-.15,5.94-1.19,5.94-5.05v-88.84c0-3.86-2.23-4.9-5.94-5.05v-2.52h26v2.52c-3.71.15-5.94,1.19-5.94,5.05v88.84Z"/>
  <path class="cls-1" d="m1704.73,491.23c0-31.94,23.03-53.93,53.48-53.93s53.33,21.99,53.33,53.93-22.88,53.93-53.33,53.93-53.48-21.99-53.48-53.93Zm91.07,0c0-29.27-14.86-50.21-37.59-50.21s-37.73,20.95-37.73,50.21,14.86,50.21,37.73,50.21,37.59-20.95,37.59-50.21Z"/>
  <path class="cls-1" d="m1868.17,439.24h33.28v2.52c-6.09.89-8.91,6.24-8.91,18.42v83.05h-3.42l-64.92-91.81v70.42c0,13.07,5.94,18.12,20.8,18.87v2.53h-33.43v-2.53c6.09-.89,8.91-6.24,8.91-18.42v-71.16c0-5.94-2.53-8.91-8.32-9.21v-2.67h20.35l56.45,79.93v-58.53c0-13.07-5.94-18.12-20.8-18.87v-2.52Z"/>
  <path class="cls-1" d="m1913.26,563.58l-1.63-2.23c16.49-12.18,22.88-28.08,22.88-61.21s-6.39-49.17-22.88-61.36l1.63-2.38c21.39,12.48,33.87,36.1,33.87,63.73s-12.48,51.11-33.87,63.44Z"/>
</svg>